#tb 0: 1/25
#media_type 0: video
#codec_id 0: rawvideo
#dimensions 0: 832x480
#sar 0: 0/1
0,          0,          0,        1,   599040, 0x91d452d5
0,          1,          1,        1,   599040, 0x1b482509
0,          2,          2,        1,   599040, 0xbc51425c
0,          3,          3,        1,   599040, 0x5777eeee
0,          4,          4,        1,   599040, 0xe274644d
0,          5,          5,        1,   599040, 0x867450b5
0,          6,          6,        1,   599040, 0x58708122
0,          7,          7,        1,   599040, 0xeef17206
0,          8,          8,        1,   599040, 0x97f4dc1e
0,          9,          9,        1,   599040, 0x92c961cc
0,         10,         10,        1,   599040, 0x1c4ffcb0
0,         11,         11,        1,   599040, 0xc73e34e6
0,         12,         12,        1,   599040, 0x1991f1f9
0,         13,         13,        1,   599040, 0x36e54ba2
0,         14,         14,        1,   599040, 0x698ce0c6
0,         15,         15,        1,   599040, 0xc6dd131e
0,         16,         16,        1,   599040, 0x0a22f4c5
0,         17,         17,        1,   599040, 0xd6a0c196
0,         18,         18,        1,   599040, 0x699a3e69
0,         19,         19,        1,   599040, 0x4227009b
0,         20,         20,        1,   599040, 0xd1d5dcb4
0,         21,         21,        1,   599040, 0x58b2edb3
0,         22,         22,        1,   599040, 0xd1f795d8
0,         23,         23,        1,   599040, 0x3331d5e6
0,         24,         24,        1,   599040, 0x5e5ec2c9
0,         25,         25,        1,   599040, 0x3b907bf5
0,         26,         26,        1,   599040, 0xefcbf471
0,         27,         27,        1,   599040, 0x2769a578
0,         28,         28,        1,   599040, 0x812ce986
0,         29,         29,        1,   599040, 0xf07c212c
0,         30,         30,        1,   599040, 0x00a0249f
0,         31,         31,        1,   599040, 0x7263f7cf
0,         32,         32,        1,   599040, 0x47054be4
0,         33,         33,        1,   599040, 0xda083f52
0,         34,         34,        1,   599040, 0xf2906ab1
0,         35,         35,        1,   599040, 0x20936797
0,         36,         36,        1,   599040, 0x644d7c3e
0,         37,         37,        1,   599040, 0x7c00e8bf
0,         38,         38,        1,   599040, 0x041f8a48
0,         39,         39,        1,   599040, 0xcef6e936
0,         40,         40,        1,   599040, 0x361461e9
0,         41,         41,        1,   599040, 0xf663ba0a
0,         42,         42,        1,   599040, 0x4d3371d3
0,         43,         43,        1,   599040, 0xed6b5c92
0,         44,         44,        1,   599040, 0xdec67f6e
0,         45,         45,        1,   599040, 0xbafa50c0
0,         46,         46,        1,   599040, 0xc9181637
0,         47,         47,        1,   599040, 0x29eadcac
0,         48,         48,        1,   599040, 0xb258430f
0,         49,         49,        1,   599040, 0x49dc8716
0,         50,         50,        1,   599040, 0x80b0a3b3
0,         51,         51,        1,   599040, 0x5d8275a7
0,         52,         52,        1,   599040, 0xe236242d
0,         53,         53,        1,   599040, 0x3e14bb43
0,         54,         54,        1,   599040, 0x20e6e2d7
0,         55,         55,        1,   599040, 0x19cad4ee
0,         56,         56,        1,   599040, 0x13fd16f1
0,         57,         57,        1,   599040, 0x98e56b95
0,         58,         58,        1,   599040, 0x028e4c6a
0,         59,         59,        1,   599040, 0x5bd1131d
0,         60,         60,        1,   599040, 0x0afe3873
0,         61,         61,        1,   599040, 0xea93e425
0,         62,         62,        1,   599040, 0xeb301be1
0,         63,         63,        1,   599040, 0x443ca0a3
0,         64,         64,        1,   599040, 0xb68b40a1
0,         65,         65,        1,   599040, 0xf58f75b9
0,         66,         66,        1,   599040, 0xefa27c52
0,         67,         67,        1,   599040, 0xac676fa5
0,         68,         68,        1,   599040, 0x688d1582
0,         69,         69,        1,   599040, 0x9067a4ef
0,         70,         70,        1,   599040, 0xdc753d6c
0,         71,         71,        1,   599040, 0x6f6da304
0,         72,         72,        1,   599040, 0xa7606f97
0,         73,         73,        1,   599040, 0xb53c8c18
0,         74,         74,        1,   599040, 0x3572d550
0,         75,         75,        1,   599040, 0x123d5423
0,         76,         76,        1,   599040, 0x89f11e50
0,         77,         77,        1,   599040, 0x702649cc
0,         78,         78,        1,   599040, 0x2b4767c4
0,         79,         79,        1,   599040, 0xf18b9628
0,         80,         80,        1,   599040, 0x1ef72a6b
0,         81,         81,        1,   599040, 0x0a8c9641
0,         82,         82,        1,   599040, 0xf2fa0233
0,         83,         83,        1,   599040, 0x99385e51
0,         84,         84,        1,   599040, 0x77b413cf
0,         85,         85,        1,   599040, 0x6360c9e3
0,         86,         86,        1,   599040, 0xe216b383
0,         87,         87,        1,   599040, 0x54df8826
0,         88,         88,        1,   599040, 0x6691e1ee
0,         89,         89,        1,   599040, 0x37bebd20
0,         90,         90,        1,   599040, 0xf05184e4
0,         91,         91,        1,   599040, 0xbd7fab4f
0,         92,         92,        1,   599040, 0x70211cdc
0,         93,         93,        1,   599040, 0x4f4c375b
0,         94,         94,        1,   599040, 0x2d645b5a
0,         95,         95,        1,   599040, 0x475d263f
